<svg aria-hidden="true" style="position: absolute; width: 0; height: 0; overflow: hidden;" version="1.1" xmlns="http://www.w3.org/2000/svg" xmlns:xlink="http://www.w3.org/1999/xlink">
<defs>
<symbol id="arrow_back" viewBox="0 0 32 32">
<path d="M9.46 17.136l7.336 7.335c0.227 0.227 0.341 0.494 0.344 0.8s-0.109 0.574-0.336 0.803c-0.227 0.229-0.494 0.343-0.802 0.34s-0.577-0.117-0.805-0.344l-9.267-9.267c-0.121-0.123-0.21-0.25-0.265-0.383s-0.083-0.273-0.083-0.422 0.028-0.289 0.083-0.421c0.055-0.132 0.143-0.259 0.265-0.382l9.275-9.275c0.234-0.226 0.503-0.34 0.806-0.34s0.567 0.113 0.794 0.34c0.226 0.232 0.34 0.5 0.34 0.803s-0.113 0.569-0.34 0.796l-7.344 7.343h16.27c0.325 0 0.597 0.108 0.816 0.323s0.328 0.486 0.328 0.812-0.109 0.597-0.328 0.812c-0.219 0.215-0.491 0.323-0.816 0.323h-16.27z"></path>
</symbol>
<symbol id="arrow_forward" viewBox="0 0 32 32">
<path d="M22.54 17.136h-16.27c-0.326 0-0.597-0.108-0.812-0.323s-0.323-0.486-0.323-0.812 0.108-0.597 0.323-0.812c0.215-0.215 0.486-0.323 0.812-0.323h16.27l-7.336-7.335c-0.227-0.227-0.341-0.494-0.344-0.801s0.109-0.575 0.336-0.803c0.227-0.229 0.495-0.342 0.803-0.339s0.577 0.117 0.805 0.344l9.267 9.267c0.121 0.123 0.21 0.25 0.265 0.383s0.083 0.273 0.083 0.422-0.028 0.289-0.083 0.421c-0.055 0.132-0.143 0.259-0.265 0.382l-9.275 9.267c-0.234 0.232-0.503 0.348-0.806 0.348s-0.567-0.117-0.794-0.35c-0.226-0.227-0.34-0.492-0.34-0.795s0.113-0.568 0.34-0.794l7.344-7.343z"></path>
</symbol>
<symbol id="menu" viewBox="0 0 32 32">
<path d="M4.936 24.294c-0.321 0-0.59-0.11-0.808-0.329s-0.327-0.493-0.327-0.82c0-0.322 0.109-0.591 0.327-0.807s0.488-0.323 0.808-0.323h22.127c0.321 0 0.591 0.11 0.812 0.329s0.331 0.49 0.331 0.812c0 0.327-0.11 0.599-0.331 0.814s-0.492 0.323-0.812 0.323h-22.127zM4.936 17.135c-0.321 0-0.59-0.11-0.808-0.329s-0.327-0.49-0.327-0.812c0-0.322 0.109-0.591 0.327-0.806s0.488-0.323 0.808-0.323h22.127c0.321 0 0.591 0.11 0.812 0.329s0.331 0.49 0.331 0.812c0 0.322-0.11 0.591-0.331 0.806s-0.492 0.323-0.812 0.323h-22.127zM4.936 9.983c-0.321 0-0.59-0.11-0.808-0.329s-0.327-0.493-0.327-0.82c0-0.322 0.109-0.591 0.327-0.806s0.488-0.323 0.808-0.323h22.127c0.321 0 0.591 0.11 0.812 0.329s0.331 0.49 0.331 0.812c0 0.328-0.11 0.599-0.331 0.815s-0.492 0.323-0.812 0.323h-22.127z"></path>
</symbol>
<symbol id="logout" viewBox="0 0 32 32">
<path d="M6.072 28.199c-0.613 0-1.145-0.225-1.595-0.676s-0.676-0.982-0.676-1.595v-19.857c0-0.616 0.225-1.149 0.676-1.601s0.982-0.678 1.595-0.678h8.807c0.321 0 0.59 0.111 0.808 0.334s0.327 0.495 0.327 0.816c0 0.322-0.109 0.59-0.327 0.806s-0.487 0.323-0.808 0.323h-8.807v19.857h8.807c0.321 0 0.59 0.11 0.808 0.329s0.327 0.49 0.327 0.812c0 0.322-0.109 0.591-0.327 0.806s-0.487 0.323-0.808 0.323h-8.807zM23.856 17.136h-10.768c-0.32 0-0.59-0.11-0.808-0.329s-0.327-0.49-0.327-0.812c0-0.322 0.109-0.591 0.327-0.806s0.488-0.323 0.808-0.323h10.701l-2.564-2.564c-0.227-0.228-0.334-0.495-0.323-0.8s0.13-0.571 0.357-0.795c0.226-0.229 0.496-0.342 0.81-0.34s0.585 0.117 0.815 0.344l4.529 4.529c0.221 0.228 0.332 0.494 0.332 0.797s-0.111 0.568-0.332 0.794l-4.496 4.496c-0.222 0.226-0.486 0.335-0.792 0.327s-0.577-0.126-0.812-0.352c-0.218-0.227-0.328-0.497-0.331-0.811s0.112-0.586 0.344-0.813l2.531-2.539z"></path>
</symbol>
<symbol id="Youtube" viewBox="0 0 32 32">
<path d="M28.79 9.604c-0.152-0.563-0.449-1.077-0.861-1.49s-0.925-0.711-1.489-0.864c-2.088-0.573-10.441-0.583-10.441-0.583s-8.352-0.009-10.441 0.539c-0.563 0.16-1.075 0.462-1.487 0.878s-0.711 0.929-0.867 1.493c-0.551 2.088-0.556 6.419-0.556 6.419s-0.005 4.352 0.541 6.419c0.307 1.143 1.207 2.045 2.351 2.353 2.109 0.573 10.44 0.583 10.44 0.583s8.353 0.009 10.441-0.537c0.563-0.153 1.077-0.45 1.49-0.862s0.712-0.925 0.866-1.488c0.552-2.087 0.556-6.416 0.556-6.416s0.027-4.353-0.543-6.441zM13.328 20.007l0.007-8 6.943 4.007-6.949 3.993z"></path>
</symbol>
<symbol id="X" viewBox="0 0 32 32">
<path d="M22.901 5.657h3.68l-8.040 9.037 9.459 12.297h-7.406l-5.801-7.458-6.637 7.458h-3.682l8.6-9.666-9.074-11.668h7.594l5.243 6.817 6.064-6.817zM21.61 24.824h2.039l-13.163-17.115h-2.188l13.312 17.115z"></path>
</symbol>
<symbol id="Instagram" viewBox="0 0 32 32">
<path d="M16.007 6.488c3.206 0 3.585 0.014 4.846 0.071 1.172 0.052 1.804 0.248 2.227 0.412 0.558 0.216 0.961 0.478 1.378 0.895 0.422 0.422 0.679 0.82 0.9 1.378 0.164 0.422 0.361 1.059 0.412 2.226 0.056 1.266 0.071 1.645 0.071 4.847s-0.014 3.585-0.071 4.847c-0.052 1.172-0.248 1.804-0.412 2.226-0.216 0.558-0.478 0.961-0.895 1.378-0.422 0.422-0.82 0.679-1.377 0.9-0.422 0.164-1.060 0.361-2.227 0.412-1.266 0.056-1.645 0.071-4.847 0.071s-3.585-0.014-4.847-0.071c-1.172-0.052-1.804-0.248-2.226-0.412-0.558-0.216-0.961-0.478-1.378-0.895-0.422-0.422-0.679-0.82-0.9-1.378-0.164-0.422-0.361-1.060-0.412-2.227-0.056-1.266-0.071-1.645-0.071-4.847s0.014-3.585 0.071-4.847c0.052-1.172 0.248-1.804 0.412-2.226 0.216-0.558 0.478-0.961 0.895-1.378 0.422-0.422 0.82-0.679 1.378-0.9 0.422-0.164 1.059-0.361 2.226-0.412 1.261-0.056 1.641-0.071 4.847-0.071h0.001zM16.007 4.328c-3.258 0-3.665 0.014-4.945 0.071-1.275 0.056-2.151 0.262-2.91 0.558-0.792 0.309-1.462 0.717-2.127 1.387-0.67 0.666-1.078 1.336-1.387 2.123-0.295 0.764-0.502 1.636-0.558 2.91-0.056 1.285-0.071 1.692-0.071 4.949s0.014 3.665 0.071 4.945c0.056 1.275 0.262 2.151 0.558 2.91 0.31 0.792 0.717 1.462 1.387 2.127 0.665 0.665 1.336 1.078 2.123 1.383 0.764 0.295 1.636 0.502 2.91 0.558 1.279 0.056 1.687 0.070 4.945 0.070s3.665-0.014 4.945-0.070c1.275-0.056 2.151-0.263 2.91-0.558 0.787-0.304 1.458-0.717 2.123-1.383s1.078-1.336 1.383-2.123c0.295-0.764 0.502-1.636 0.558-2.91 0.056-1.279 0.070-1.687 0.070-4.945s-0.014-3.665-0.070-4.945c-0.056-1.275-0.263-2.151-0.558-2.91-0.295-0.797-0.703-1.467-1.373-2.133-0.665-0.665-1.336-1.078-2.123-1.383-0.764-0.295-1.636-0.502-2.91-0.558-1.284-0.061-1.692-0.075-4.949-0.075l-0.001 0.001z"></path>
<path d="M16.007 10.163c-3.402 0-6.163 2.76-6.163 6.163s2.76 6.163 6.163 6.163 6.163-2.76 6.163-6.163c0-3.402-2.76-6.163-6.163-6.163zM16.007 20.324c-2.208 0-3.998-1.79-3.998-3.998s1.79-3.998 3.998-3.998c2.208 0 3.998 1.79 3.998 3.998s-1.79 3.998-3.998 3.998z"></path>
<path d="M23.851 9.919c0 0.795-0.644 1.439-1.439 1.439s-1.439-0.644-1.439-1.439 0.644-1.439 1.439-1.439c0.795 0 1.439 0.644 1.439 1.439z"></path>
</symbol>
<symbol id="icon-Facebook" viewBox="0 0 32 32">
<path d="M29.333 16.405c0-7.409-5.969-13.415-13.333-13.415s-13.333 6.006-13.333 13.415c0 6.696 4.876 12.245 11.25 13.252v-9.374h-3.385v-3.878h3.385v-2.955c0-3.362 1.991-5.219 5.036-5.219 1.459 0 2.985 0.262 2.985 0.262v3.301h-1.681c-1.656 0-2.173 1.034-2.173 2.095v2.516h3.698l-0.591 3.878h-3.107v9.374c6.374-1.006 11.25-6.556 11.25-13.252z"></path>
</symbol>
<symbol id="check_box" viewBox="0 0 32 32">
<path d="M6.072 28.199c-0.624 0-1.159-0.222-1.604-0.667s-0.667-0.98-0.667-1.604v-19.857c0-0.627 0.222-1.163 0.667-1.609s0.98-0.67 1.604-0.67h18.691c0.32 0 0.59 0.111 0.808 0.334s0.327 0.495 0.327 0.816c0 0.322-0.109 0.59-0.327 0.806s-0.488 0.323-0.808 0.323h-18.691v19.857h19.857v-11.090c0-0.32 0.11-0.59 0.329-0.808s0.49-0.327 0.812-0.327c0.322 0 0.592 0.109 0.81 0.327s0.328 0.488 0.328 0.808v11.090c0 0.624-0.223 1.159-0.67 1.604s-0.983 0.667-1.609 0.667h-19.857zM15.414 19.424l12.073-12.073c0.213-0.21 0.459-0.316 0.737-0.316s0.521 0.105 0.73 0.316c0.209 0.211 0.313 0.456 0.313 0.737s-0.103 0.52-0.308 0.719l-12.741 12.741c-0.23 0.226-0.499 0.34-0.806 0.34s-0.574-0.113-0.801-0.34l-5.865-5.865c-0.211-0.211-0.316-0.455-0.316-0.732s0.105-0.521 0.316-0.732c0.211-0.211 0.453-0.316 0.728-0.316s0.517 0.105 0.728 0.316l5.212 5.204z"></path>
</symbol>
<symbol id="filter" viewBox="0 0 32 32">
<path d="M14.667 26.866c-0.431 0-0.794-0.148-1.089-0.443s-0.443-0.658-0.443-1.089v-7.928l-7.919-10.119c-0.364-0.447-0.418-0.919-0.161-1.415s0.661-0.745 1.213-0.745h19.467c0.552 0 0.956 0.248 1.213 0.745s0.206 0.968-0.153 1.415l-7.919 10.119v7.992c0 0.42-0.141 0.77-0.423 1.050s-0.633 0.419-1.054 0.419h-2.73zM16 17.347l7.849-9.942h-15.689l7.841 9.942z"></path>
</symbol>
<symbol id="communication" viewBox="0 0 32 32">
<path d="M1.15 21.271v-0.569c0-1.243 0.618-2.059 1.853-2.45s2.329-0.586 3.283-0.586c0.954 0 2.048 0.195 3.283 0.584s1.853 1.207 1.853 2.451v0.569h-10.271zM6.284 15.881c-0.725 0-1.345-0.259-1.861-0.776s-0.773-1.14-0.773-1.866c0-0.727 0.258-1.348 0.775-1.863s1.137-0.773 1.862-0.773c0.725 0 1.345 0.259 1.861 0.776s0.773 1.139 0.773 1.864-0.258 1.346-0.775 1.864c-0.516 0.517-1.137 0.776-1.862 0.776zM13.244 17.88c-0.255 0-0.466-0.080-0.632-0.24s-0.249-0.365-0.249-0.616c0-0.125 0.083-0.342 0.249-0.65 0.172-0.244 0.309-0.5 0.409-0.767s0.15-0.545 0.15-0.834c0-0.289-0.050-0.575-0.15-0.858s-0.237-0.532-0.411-0.749c-0.072-0.097-0.131-0.198-0.177-0.303s-0.069-0.216-0.069-0.333c0-0.254 0.083-0.464 0.25-0.629s0.377-0.248 0.631-0.248c0.112 0 0.228 0.018 0.346 0.054s0.211 0.098 0.278 0.187c0.388 0.405 0.673 0.856 0.853 1.353s0.271 1.006 0.271 1.526c0 0.516-0.097 1.035-0.291 1.556s-0.48 0.968-0.856 1.34c-0.089 0.089-0.182 0.146-0.278 0.171s-0.204 0.038-0.322 0.038zM15.783 20.415c-0.26 0-0.471-0.084-0.633-0.251s-0.243-0.379-0.243-0.635c0-0.118 0.022-0.228 0.065-0.33s0.101-0.201 0.173-0.296c0.546-0.639 0.951-1.308 1.215-2.005s0.395-1.405 0.395-2.125-0.132-1.434-0.395-2.144c-0.264-0.71-0.669-1.376-1.216-1.998-0.071-0.095-0.129-0.192-0.172-0.291s-0.065-0.211-0.065-0.335c0-0.258 0.083-0.469 0.25-0.633s0.377-0.246 0.632-0.246c0.13 0 0.252 0.030 0.363 0.091s0.214 0.141 0.308 0.242c0.695 0.8 1.215 1.649 1.558 2.547s0.516 1.819 0.516 2.764c0 0.945-0.172 1.866-0.516 2.764s-0.863 1.747-1.558 2.547c-0.087 0.111-0.187 0.194-0.299 0.25s-0.238 0.083-0.378 0.083zM20.579 21.271v-0.569c0-1.244 0.618-2.062 1.853-2.451s2.329-0.584 3.283-0.584c0.954 0 2.048 0.195 3.283 0.586s1.853 1.207 1.853 2.45v0.569h-10.271zM25.713 15.881c-0.725 0-1.345-0.259-1.861-0.776s-0.773-1.14-0.773-1.866c0-0.727 0.258-1.348 0.775-1.863s1.137-0.773 1.862-0.773c0.725 0 1.345 0.259 1.861 0.776s0.773 1.139 0.773 1.864-0.258 1.346-0.775 1.864c-0.516 0.517-1.137 0.776-1.862 0.776z"></path>
</symbol>
<symbol id="map_search" viewBox="0 0 32 32">
<path d="M5.738 27.458c-0.447 0.226-0.882 0.209-1.304-0.053s-0.634-0.652-0.634-1.171v-18.6c0-0.331 0.095-0.627 0.286-0.886s0.44-0.45 0.75-0.572l6.043-2.125c0.249-0.094 0.5-0.136 0.754-0.125s0.505 0.053 0.754 0.125l8.012 2.809 5.862-2.351c0.447-0.204 0.883-0.181 1.308 0.070s0.638 0.636 0.638 1.155v11.377c0 0.332-0.109 0.599-0.327 0.804s-0.49 0.307-0.816 0.307c-0.326 0-0.597-0.108-0.812-0.323s-0.323-0.489-0.323-0.82v-10.106l-4.662 1.776v5.614c0 0.289-0.094 0.528-0.283 0.717s-0.428 0.283-0.717 0.283c-0.289 0-0.528-0.094-0.717-0.283s-0.283-0.428-0.283-0.717v-5.614l-6.533-2.2v16.959c0 0.354-0.095 0.676-0.286 0.966s-0.449 0.499-0.775 0.626l-5.934 2.362zM6.072 24.988l4.662-1.776v-16.666l-4.662 1.543v16.899zM21.936 24.846c0.807 0 1.488-0.281 2.042-0.843s0.828-1.233 0.823-2.014c-0.005-0.807-0.282-1.486-0.831-2.038s-1.227-0.827-2.034-0.827c-0.807 0-1.485 0.276-2.034 0.827s-0.823 1.231-0.823 2.038c0 0.807 0.274 1.485 0.823 2.034s1.227 0.823 2.034 0.823zM21.936 27.125c-1.415 0-2.625-0.502-3.629-1.507s-1.507-2.214-1.507-3.629c0-1.437 0.502-2.654 1.507-3.65s2.214-1.494 3.629-1.494c1.437 0 2.653 0.498 3.649 1.494s1.494 2.213 1.494 3.65c0 0.501-0.068 0.978-0.205 1.431s-0.333 0.877-0.589 1.272l2.645 2.654c0.204 0.204 0.308 0.447 0.311 0.729s-0.101 0.525-0.311 0.729c-0.199 0.204-0.439 0.306-0.721 0.306s-0.527-0.102-0.737-0.306l-2.638-2.596c-0.422 0.306-0.872 0.535-1.35 0.688s-0.995 0.229-1.55 0.229z"></path>
</symbol>
<symbol id="close" viewBox="0 0 32 32">
<path stroke-linejoin="miter" stroke-linecap="butt" stroke-miterlimit="4" stroke-width="1.3333" d="M23.466 7.9c0.219 0 0.355 0.065 0.462 0.172s0.172 0.242 0.172 0.461c0 0.219-0.065 0.355-0.172 0.462l-7.005 7.005 7.005 7.004c0.107 0.107 0.172 0.243 0.172 0.462s-0.065 0.355-0.172 0.462-0.243 0.172-0.462 0.172c-0.219 0-0.355-0.065-0.462-0.172l-7.004-7.005-7.005 7.005c-0.107 0.107-0.243 0.172-0.462 0.172s-0.354-0.065-0.461-0.172c-0.107-0.107-0.172-0.243-0.172-0.462s0.065-0.355 0.172-0.462l7.004-7.004-7.004-7.005c-0.107-0.107-0.172-0.243-0.172-0.462s0.065-0.354 0.172-0.461 0.242-0.172 0.461-0.172c0.219 0 0.355 0.065 0.462 0.172l7.005 7.004 7.004-7.004c0.107-0.107 0.243-0.172 0.462-0.172z"></path>
</symbol>
<symbol id="arrow-down" viewBox="0 0 12 7">
  <path
    d="M5.77637 0.5C5.87021 0.5 5.94626 0.52829 6.02637 0.608398L10.9697 5.55273C11.0517 5.63472 11.0781 5.7086 11.0781 5.7959C11.0781 5.88314 11.0517 5.95712 10.9697 6.03906C10.8917 6.11706 10.8147 6.14746 10.7139 6.14746C10.6133 6.14738 10.5369 6.11689 10.459 6.03906L10.458 6.03809L6.12891 1.73438L5.77539 1.38281L1.09473 6.06348C1.01698 6.14122 0.950758 6.16309 0.870117 6.16016C0.775851 6.15671 0.694454 6.12512 0.608398 6.03906C0.530288 5.96094 0.5 5.8841 0.5 5.7832C0.500009 5.68232 0.530285 5.60546 0.608398 5.52734L5.52734 0.608398C5.60734 0.528399 5.6827 0.500077 5.77637 0.5Z"
  />
</symbol>
</defs>
</svg>
